<?xml version="1.0" encoding="utf-8"?>
<!-- Generator: Adobe Illustrator 27.9.3, SVG Export Plug-In . SVG Version: 9.03 Build 53313)  -->
<svg version="1.1" id="Calque_1" xmlns="http://www.w3.org/2000/svg" xmlns:xlink="http://www.w3.org/1999/xlink" x="0px" y="0px"
	 viewBox="0 0 259.44 60" style="enable-background:new 0 0 259.44 60;" xml:space="preserve">
<style type="text/css">
	.st0{fill:url(#SVGID_1_);}
	.st1{fill:url(#SVGID_00000075842604154468815630000007541062061031670401_);}
	.st2{fill:url(#SVGID_00000021094352300853462750000006080602504758754951_);}
	.st3{fill:url(#SVGID_00000102520438791346609870000014963397468468078471_);}
	.st4{fill:url(#SVGID_00000132790161486514792730000017334822293245005457_);}
	.st5{fill:url(#SVGID_00000109032080425531861520000012448017709484166312_);}
	.st6{fill:url(#SVGID_00000020392354903071253740000008026477272888757153_);}
	.st7{fill:url(#SVGID_00000136412122912925329040000007691954147919404178_);}
	.st8{fill:url(#SVGID_00000150799229589493244920000009916196040965147799_);}
	.st9{fill:url(#SVGID_00000111179352216776760670000001735841713880331931_);}
	.st10{fill:url(#SVGID_00000039818804005344787780000006682644831114248346_);}
	.st11{fill:url(#SVGID_00000018199442968628571330000012839268131936893886_);}
</style>
<g>
	<g>
		<linearGradient id="SVGID_1_" gradientUnits="userSpaceOnUse" x1="0" y1="33.352" x2="28.8268" y2="33.352">
			<stop  offset="0" style="stop-color:#FFFFFF"/>
			<stop  offset="1" style="stop-color:#1D1D1B"/>
		</linearGradient>
		<path class="st0" d="M17.1,60c-3.58,0-6.36-0.89-8.34-2.68c-1.98-1.79-2.97-4.64-2.97-8.55V20.11H0v-0.84l2.01-0.34
			c1.73-0.39,3.23-0.95,4.48-1.68c1.26-0.73,2.5-1.7,3.73-2.93L17.1,6.7h0.84l-0.25,11.73h9.39v1.68H17.6v30.17
			c0,1.96,0.43,3.44,1.3,4.44c0.87,1.01,1.97,1.51,3.31,1.51c1.17,0,2.21-0.29,3.1-0.88c0.89-0.59,1.79-1.38,2.68-2.39l0.84,0.84
			c-1.12,1.9-2.65,3.41-4.61,4.53C22.26,59.44,19.89,60,17.1,60z"/>
		
			<linearGradient id="SVGID_00000047021846830893439740000009486067332813694136_" gradientUnits="userSpaceOnUse" x1="31.5915" y1="29.3715" x2="76.7591" y2="29.3715">
			<stop  offset="0" style="stop-color:#FFFFFF"/>
			<stop  offset="1" style="stop-color:#1D1D1B"/>
		</linearGradient>
		<path style="fill:url(#SVGID_00000047021846830893439740000009486067332813694136_);" d="M31.68,58.74v-0.84l1.01-0.34
			c2.01-0.67,3.02-2.07,3.02-4.19V8.63c0-1.17-0.2-2.04-0.59-2.6c-0.39-0.56-1.15-0.98-2.26-1.26l-1.26-0.33V3.6L46.34,0l1.34,0.75
			l-0.34,11.82v10.47c1.95-1.62,4.06-3,6.33-4.15c2.26-1.14,4.76-1.72,7.5-1.72c3.63,0,6.52,1.03,8.67,3.1
			c2.15,2.07,3.23,5.25,3.23,9.55v23.63c0,1.12,0.22,2.01,0.67,2.68c0.45,0.67,1.23,1.17,2.35,1.51l0.67,0.25v0.84H57.15v-0.84
			l1.01-0.25c2.01-0.67,3.02-2.1,3.02-4.27V27.07c0-2.23-0.38-3.77-1.13-4.61c-0.75-0.84-2.08-1.26-3.98-1.26
			c-1.23,0-2.57,0.24-4.02,0.71c-1.45,0.48-2.93,1.3-4.44,2.47v29.16c0,2.18,1.01,3.58,3.02,4.19l0.67,0.17v0.84H31.68z"/>
		
			<linearGradient id="SVGID_00000106833003536495544700000015711491682418389682_" gradientUnits="userSpaceOnUse" x1="80.3613" y1="38.5894" x2="118.3221" y2="38.5894">
			<stop  offset="0" style="stop-color:#FFFFFF"/>
			<stop  offset="1" style="stop-color:#1D1D1B"/>
		</linearGradient>
		<path style="fill:url(#SVGID_00000106833003536495544700000015711491682418389682_);" d="M101.06,17.18c3.63,0,6.73,0.74,9.3,2.22
			c2.57,1.48,4.54,3.49,5.91,6.03c1.37,2.54,2.05,5.43,2.05,8.67c0,0.61-0.03,1.24-0.08,1.89c-0.06,0.64-0.17,1.21-0.34,1.72H92.93
			c0.06,6.03,1.13,10.38,3.23,13.03c2.09,2.65,5.21,3.98,9.34,3.98c2.79,0,5.06-0.45,6.79-1.34c1.73-0.89,3.35-2.21,4.86-3.94
			l0.84,0.75c-1.73,3.07-4.04,5.48-6.91,7.21c-2.88,1.73-6.33,2.6-10.35,2.6c-3.97,0-7.49-0.85-10.56-2.56
			c-3.07-1.7-5.48-4.15-7.21-7.33c-1.73-3.18-2.6-6.98-2.6-11.4c0-4.58,1.01-8.48,3.02-11.69c2.01-3.21,4.59-5.66,7.75-7.33
			C94.28,18.02,97.6,17.18,101.06,17.18z M100.81,18.85c-1.62,0-3,0.49-4.15,1.47c-1.15,0.98-2.04,2.71-2.68,5.2
			c-0.64,2.49-0.99,5.99-1.05,10.52h14.33c0.56-6.09,0.34-10.48-0.67-13.16C105.58,20.2,103.66,18.85,100.81,18.85z"/>
		
			<linearGradient id="SVGID_00000165945828295328364930000018337685449554509967_" gradientUnits="userSpaceOnUse" x1="122.8462" y1="38.5894" x2="160.8075" y2="38.5894">
			<stop  offset="0" style="stop-color:#FFFFFF"/>
			<stop  offset="1" style="stop-color:#1D1D1B"/>
		</linearGradient>
		<path style="fill:url(#SVGID_00000165945828295328364930000018337685449554509967_);" d="M143.54,17.18c3.63,0,6.73,0.74,9.3,2.22
			c2.57,1.48,4.54,3.49,5.91,6.03c1.37,2.54,2.05,5.43,2.05,8.67c0,0.61-0.03,1.24-0.08,1.89c-0.06,0.64-0.17,1.21-0.34,1.72h-24.97
			c0.05,6.03,1.13,10.38,3.23,13.03c2.09,2.65,5.21,3.98,9.34,3.98c2.79,0,5.06-0.45,6.79-1.34c1.73-0.89,3.35-2.21,4.86-3.94
			l0.84,0.75c-1.73,3.07-4.04,5.48-6.91,7.21c-2.88,1.73-6.33,2.6-10.35,2.6c-3.97,0-7.49-0.85-10.56-2.56
			c-3.07-1.7-5.48-4.15-7.21-7.33c-1.73-3.18-2.6-6.98-2.6-11.4c0-4.58,1.01-8.48,3.02-11.69c2.01-3.21,4.59-5.66,7.75-7.33
			C136.77,18.02,140.08,17.18,143.54,17.18z M143.29,18.85c-1.62,0-3,0.49-4.15,1.47c-1.15,0.98-2.04,2.71-2.68,5.2
			c-0.64,2.49-0.99,5.99-1.05,10.52h14.33c0.56-6.09,0.34-10.48-0.67-13.16C148.07,20.2,146.14,18.85,143.29,18.85z"/>
		
			<linearGradient id="SVGID_00000127747705290142623800000016087642939108287124_" gradientUnits="userSpaceOnUse" x1="164.9965" y1="37.9608" x2="210.1641" y2="37.9608">
			<stop  offset="0" style="stop-color:#FFFFFF"/>
			<stop  offset="1" style="stop-color:#1D1D1B"/>
		</linearGradient>
		<path style="fill:url(#SVGID_00000127747705290142623800000016087642939108287124_);" d="M165,58.74v-0.84l1.17-0.34
			c1.95-0.56,2.93-1.93,2.93-4.11V27.23c0-1.23-0.2-2.14-0.59-2.72c-0.39-0.59-1.15-0.99-2.26-1.22L165,22.96v-0.84l14.33-4.86
			l0.84,0.84l0.67,5.03c1.95-1.73,4.16-3.16,6.62-4.27c2.46-1.12,4.89-1.68,7.29-1.68c3.69,0,6.52,1.01,8.51,3.02
			c1.98,2.01,2.97,5.08,2.97,9.22v24.13c0,2.18,1.06,3.55,3.18,4.11l0.75,0.25v0.84h-19.78v-0.84l1.09-0.34
			c1.95-0.61,2.93-1.98,2.93-4.11V26.73c0-3.57-1.79-5.36-5.36-5.36c-2.46,0-5.14,1.23-8.04,3.69v28.49c0,2.18,0.98,3.55,2.93,4.11
			l0.75,0.25v0.84H165z"/>
		
			<linearGradient id="SVGID_00000132782838600859285520000007810254782136238752_" gradientUnits="userSpaceOnUse" x1="213.5985" y1="29.3715" x2="259.4367" y2="29.3715">
			<stop  offset="0" style="stop-color:#FFFFFF"/>
			<stop  offset="1" style="stop-color:#1D1D1B"/>
		</linearGradient>
		<path style="fill:url(#SVGID_00000132782838600859285520000007810254782136238752_);" d="M213.6,58.74v-0.84l1.26-0.42
			c1.9-0.61,2.85-1.98,2.85-4.11V8.55c0-1.12-0.22-1.95-0.67-2.51c-0.45-0.56-1.23-1.01-2.35-1.34l-1.09-0.25V3.6L228.93,0
			l1.01,0.75l-0.25,11.73v40.89c0,2.24,0.92,3.63,2.77,4.19l1.17,0.34v0.84H213.6z M244.69,58.74l-14.92-20.95l15.5-14.33
			c0.73-0.67,1.16-1.38,1.3-2.14c0.14-0.75-0.35-1.3-1.47-1.63l-1.42-0.42v-0.84h12.49v0.84l-2.51,0.67
			c-1.23,0.39-2.22,0.85-2.97,1.38c-0.75,0.53-1.66,1.27-2.72,2.22l-9.39,8.8l15,20.87c0.89,1.23,1.73,2.18,2.51,2.85
			c0.78,0.67,1.79,1.23,3.02,1.68l0.34,0.17v0.84H244.69z"/>
	</g>
	<g>
		
			<linearGradient id="SVGID_00000111178441812679817510000003843528835247596433_" gradientUnits="userSpaceOnUse" x1="30.1667" y1="95.1346" x2="232.8795" y2="-21.9017">
			<stop  offset="0" style="stop-color:#26A568"/>
			<stop  offset="0.5" style="stop-color:#39C67C"/>
		</linearGradient>
		<path style="fill:url(#SVGID_00000111178441812679817510000003843528835247596433_);" d="M17.1,60c-3.58,0-6.36-0.89-8.34-2.68
			c-1.98-1.79-2.97-4.64-2.97-8.55V20.11H0v-0.84l2.01-0.34c1.73-0.39,3.23-0.95,4.48-1.68c1.26-0.73,2.5-1.7,3.73-2.93L17.1,6.7
			h0.84l-0.25,11.73h9.39v1.68H17.6v30.17c0,1.96,0.43,3.44,1.3,4.44c0.87,1.01,1.97,1.51,3.31,1.51c1.17,0,2.21-0.29,3.1-0.88
			c0.89-0.59,1.79-1.38,2.68-2.39l0.84,0.84c-1.12,1.9-2.65,3.41-4.61,4.53C22.26,59.44,19.89,60,17.1,60z"/>
		
			<linearGradient id="SVGID_00000144326692856545806000000014596510032316780446_" gradientUnits="userSpaceOnUse" x1="30.1667" y1="95.1346" x2="232.8795" y2="-21.9017">
			<stop  offset="0" style="stop-color:#26A568"/>
			<stop  offset="0.5" style="stop-color:#39C67C"/>
		</linearGradient>
		<path style="fill:url(#SVGID_00000144326692856545806000000014596510032316780446_);" d="M31.68,58.74v-0.84l1.01-0.34
			c2.01-0.67,3.02-2.07,3.02-4.19V8.63c0-1.17-0.2-2.04-0.59-2.6c-0.39-0.56-1.15-0.98-2.26-1.26l-1.26-0.33V3.6L46.34,0l1.34,0.75
			l-0.34,11.82v10.47c1.95-1.62,4.06-3,6.33-4.15c2.26-1.14,4.76-1.72,7.5-1.72c3.63,0,6.52,1.03,8.67,3.1
			c2.15,2.07,3.23,5.25,3.23,9.55v23.63c0,1.12,0.22,2.01,0.67,2.68c0.45,0.67,1.23,1.17,2.35,1.51l0.67,0.25v0.84H57.15v-0.84
			l1.01-0.25c2.01-0.67,3.02-2.1,3.02-4.27V27.07c0-2.23-0.38-3.77-1.13-4.61c-0.75-0.84-2.08-1.26-3.98-1.26
			c-1.23,0-2.57,0.24-4.02,0.71c-1.45,0.48-2.93,1.3-4.44,2.47v29.16c0,2.18,1.01,3.58,3.02,4.19l0.67,0.17v0.84H31.68z"/>
		
			<linearGradient id="SVGID_00000127044210845699671320000001856250637259314313_" gradientUnits="userSpaceOnUse" x1="30.1667" y1="95.1346" x2="232.8795" y2="-21.9017">
			<stop  offset="0" style="stop-color:#26A568"/>
			<stop  offset="0.5" style="stop-color:#39C67C"/>
		</linearGradient>
		<path style="fill:url(#SVGID_00000127044210845699671320000001856250637259314313_);" d="M101.06,17.18c3.63,0,6.73,0.74,9.3,2.22
			c2.57,1.48,4.54,3.49,5.91,6.03c1.37,2.54,2.05,5.43,2.05,8.67c0,0.61-0.03,1.24-0.08,1.89c-0.06,0.64-0.17,1.21-0.34,1.72H92.93
			c0.06,6.03,1.13,10.38,3.23,13.03c2.09,2.65,5.21,3.98,9.34,3.98c2.79,0,5.06-0.45,6.79-1.34c1.73-0.89,3.35-2.21,4.86-3.94
			l0.84,0.75c-1.73,3.07-4.04,5.48-6.91,7.21c-2.88,1.73-6.33,2.6-10.35,2.6c-3.97,0-7.49-0.85-10.56-2.56
			c-3.07-1.7-5.48-4.15-7.21-7.33c-1.73-3.18-2.6-6.98-2.6-11.4c0-4.58,1.01-8.48,3.02-11.69c2.01-3.21,4.59-5.66,7.75-7.33
			C94.28,18.02,97.6,17.18,101.06,17.18z M100.81,18.85c-1.62,0-3,0.49-4.15,1.47c-1.15,0.98-2.04,2.71-2.68,5.2
			c-0.64,2.49-0.99,5.99-1.05,10.52h14.33c0.56-6.09,0.34-10.48-0.67-13.16C105.58,20.2,103.66,18.85,100.81,18.85z"/>
		
			<linearGradient id="SVGID_00000084488823007032909200000016303487695586424212_" gradientUnits="userSpaceOnUse" x1="30.1667" y1="95.1346" x2="232.8795" y2="-21.9017">
			<stop  offset="0" style="stop-color:#26A568"/>
			<stop  offset="0.5" style="stop-color:#39C67C"/>
		</linearGradient>
		<path style="fill:url(#SVGID_00000084488823007032909200000016303487695586424212_);" d="M143.54,17.18c3.63,0,6.73,0.74,9.3,2.22
			c2.57,1.48,4.54,3.49,5.91,6.03c1.37,2.54,2.05,5.43,2.05,8.67c0,0.61-0.03,1.24-0.08,1.89c-0.06,0.64-0.17,1.21-0.34,1.72h-24.97
			c0.05,6.03,1.13,10.38,3.23,13.03c2.09,2.65,5.21,3.98,9.34,3.98c2.79,0,5.06-0.45,6.79-1.34c1.73-0.89,3.35-2.21,4.86-3.94
			l0.84,0.75c-1.73,3.07-4.04,5.48-6.91,7.21c-2.88,1.73-6.33,2.6-10.35,2.6c-3.97,0-7.49-0.85-10.56-2.56
			c-3.07-1.7-5.48-4.15-7.21-7.33c-1.73-3.18-2.6-6.98-2.6-11.4c0-4.58,1.01-8.48,3.02-11.69c2.01-3.21,4.59-5.66,7.75-7.33
			C136.77,18.02,140.08,17.18,143.54,17.18z M143.29,18.85c-1.62,0-3,0.49-4.15,1.47c-1.15,0.98-2.04,2.71-2.68,5.2
			c-0.64,2.49-0.99,5.99-1.05,10.52h14.33c0.56-6.09,0.34-10.48-0.67-13.16C148.07,20.2,146.14,18.85,143.29,18.85z"/>
		
			<linearGradient id="SVGID_00000108993353145997512720000003551053559346202544_" gradientUnits="userSpaceOnUse" x1="30.1667" y1="95.1346" x2="232.8795" y2="-21.9017">
			<stop  offset="0" style="stop-color:#26A568"/>
			<stop  offset="0.5" style="stop-color:#39C67C"/>
		</linearGradient>
		<path style="fill:url(#SVGID_00000108993353145997512720000003551053559346202544_);" d="M165,58.74v-0.84l1.17-0.34
			c1.95-0.56,2.93-1.93,2.93-4.11V27.23c0-1.23-0.2-2.14-0.59-2.72c-0.39-0.59-1.15-0.99-2.26-1.22L165,22.96v-0.84l14.33-4.86
			l0.84,0.84l0.67,5.03c1.95-1.73,4.16-3.16,6.62-4.27c2.46-1.12,4.89-1.68,7.29-1.68c3.69,0,6.52,1.01,8.51,3.02
			c1.98,2.01,2.97,5.08,2.97,9.22v24.13c0,2.18,1.06,3.55,3.18,4.11l0.75,0.25v0.84h-19.78v-0.84l1.09-0.34
			c1.95-0.61,2.93-1.98,2.93-4.11V26.73c0-3.57-1.79-5.36-5.36-5.36c-2.46,0-5.14,1.23-8.04,3.69v28.49c0,2.18,0.98,3.55,2.93,4.11
			l0.75,0.25v0.84H165z"/>
		
			<linearGradient id="SVGID_00000160157322103297312300000016848504433622368901_" gradientUnits="userSpaceOnUse" x1="30.1667" y1="95.1346" x2="232.8795" y2="-21.9017">
			<stop  offset="0" style="stop-color:#26A568"/>
			<stop  offset="0.5" style="stop-color:#39C67C"/>
		</linearGradient>
		<path style="fill:url(#SVGID_00000160157322103297312300000016848504433622368901_);" d="M213.6,58.74v-0.84l1.26-0.42
			c1.9-0.61,2.85-1.98,2.85-4.11V8.55c0-1.12-0.22-1.95-0.67-2.51c-0.45-0.56-1.23-1.01-2.35-1.34l-1.09-0.25V3.6L228.93,0
			l1.01,0.75l-0.25,11.73v40.89c0,2.24,0.92,3.63,2.77,4.19l1.17,0.34v0.84H213.6z M244.69,58.74l-14.92-20.95l15.5-14.33
			c0.73-0.67,1.16-1.38,1.3-2.14c0.14-0.75-0.35-1.3-1.47-1.63l-1.42-0.42v-0.84h12.49v0.84l-2.51,0.67
			c-1.23,0.39-2.22,0.85-2.97,1.38c-0.75,0.53-1.66,1.27-2.72,2.22l-9.39,8.8l15,20.87c0.89,1.23,1.73,2.18,2.51,2.85
			c0.78,0.67,1.79,1.23,3.02,1.68l0.34,0.17v0.84H244.69z"/>
	</g>
</g>
</svg>
